<svg id="icon" xmlns="http://www.w3.org/2000/svg" width="38" height="38" viewBox="0 0 38 38">
  <defs>
    <style>
      .cls-1 {
        fill: rgba(255,96,96,0);
      }

      .cls-2 {
        fill: #323366;
      }
    </style>
  </defs>
  <rect id="bg" class="cls-1" width="38" height="38"/>
  <g id="icon-2" data-name="icon" transform="translate(3.8 3.8)">
    <rect id="bg-2" data-name="bg" class="cls-1" width="30.399" height="30.399"/>
    <g id="noun_Wallet_2529069" transform="translate(3.04 1.52)">
      <path id="Path_3676" data-name="Path 3676" class="cls-2" d="M98.6,31.821l-1.206.861a.407.407,0,0,0-.1.565.4.4,0,0,0,.56.1l1.206-.861a.407.407,0,0,0,.1-.565.4.4,0,0,0-.56-.1Z" transform="translate(-78.33 -25.313)"/>
      <path id="Path_3677" data-name="Path 3677" class="cls-2" d="M4,46.024V58.995a2.021,2.021,0,0,0,2.01,2.027h19.7a2.021,2.021,0,0,0,2.01-2.027V55.318a.809.809,0,0,0,.6-.782V50.483a.809.809,0,0,0-.6-.782V46.024A2.021,2.021,0,0,0,25.707,44H6.01A2.021,2.021,0,0,0,4,46.024Zm22.913,0v3.648H21.084a2.021,2.021,0,0,0-2.01,2.027V53.32a2.021,2.021,0,0,0,2.01,2.027h5.829v3.648a1.212,1.212,0,0,1-1.206,1.216H6.01A1.212,1.212,0,0,1,4.8,58.995V46.024A1.212,1.212,0,0,1,6.01,44.808h19.7a1.212,1.212,0,0,1,1.206,1.216Zm-4.968,6.485a.405.405,0,1,1-.405-.405.405.405,0,0,1,.405.405Z" transform="translate(-4 -35.081)"/>
      <path id="Path_3678" data-name="Path 3678" class="cls-2" d="M37.779,8.348a2.814,2.814,0,0,1,.683.431,1.207,1.207,0,0,0-.036-1.369L33.4.5A1.216,1.216,0,0,0,31.71.227l-1,.719L30.384.5A1.216,1.216,0,0,0,28.7.227L17.722,8.106h1.386L29.162.887a.413.413,0,0,1,.574.091l.319.438-9.318,6.69h5.956L34.054,2.77l3.724,5.118a.388.388,0,0,1,0,.459Z" transform="translate(-14.941 0)"/>
    </g>
  </g>
</svg>
