<svg id="icon" xmlns="http://www.w3.org/2000/svg" width="38" height="38" viewBox="0 0 38 38">
  <defs>
    <style>
      .cls-1 {
        fill: rgba(255,96,96,0);
      }

      .cls-2 {
        fill: #323366;
      }
    </style>
  </defs>
  <rect id="bg" class="cls-1" width="38" height="38"/>
  <path id="path" class="cls-2" d="M24.235,19.117V15.559A5.565,5.565,0,0,1,19.9,11.223H8.559a5.565,5.565,0,0,1-4.336,4.336v3.558a5.565,5.565,0,0,1,4.336,4.336H19.9A5.565,5.565,0,0,1,24.235,19.117Zm0,2.3A3.345,3.345,0,0,0,22.2,23.452h1.474a.559.559,0,0,0,.56-.56V21.419Zm-20.011,0v1.474a.559.559,0,0,0,.56.56H6.257A3.345,3.345,0,0,0,4.223,21.419ZM22.2,11.223a3.345,3.345,0,0,0,2.034,2.034V11.784a.559.559,0,0,0-.56-.56Zm-15.943,0H4.783a.559.559,0,0,0-.56.56v1.473a3.345,3.345,0,0,0,2.034-2.033ZM2,11.784A2.782,2.782,0,0,1,4.783,9H23.675a2.782,2.782,0,0,1,2.783,2.784V22.892a2.782,2.782,0,0,1-2.783,2.784H4.783A2.782,2.782,0,0,1,2,22.892Zm12.229,10a4.447,4.447,0,1,1,4.447-4.447A4.447,4.447,0,0,1,14.229,21.785Zm0-2.223a2.223,2.223,0,1,0-2.223-2.223A2.223,2.223,0,0,0,14.229,19.561Z" transform="translate(4.771 2.27)"/>
</svg>
