<svg xmlns="http://www.w3.org/2000/svg" width="38" height="38" viewBox="0 0 38 38">
  <defs>
    <style>
      .cls-1 {
        fill: rgba(255,96,96,0);
      }

      .cls-2 {
        fill: #323366;
      }
    </style>
  </defs>
  <g id="icon" transform="translate(0)">
    <rect id="bg" class="cls-1" width="38" height="38"/>
    <g id="cog-solid" transform="translate(11.34 9.059)">
      <path id="Shape" class="cls-2" d="M9.143,19.1h0a9.656,9.656,0,0,1-2.1-.231.464.464,0,0,1-.363-.451V16.521a7.258,7.258,0,0,1-2.34-1.351L2.7,16.116a.451.451,0,0,1-.227.061.468.468,0,0,1-.343-.15A9.646,9.646,0,0,1,.021,12.386a.464.464,0,0,1,.212-.539L1.874,10.9a7.362,7.362,0,0,1,0-2.7L.234,7.249a.459.459,0,0,1-.212-.539A9.6,9.6,0,0,1,2.128,3.069a.457.457,0,0,1,.338-.151A.468.468,0,0,1,2.7,2.98l1.636.947A7.492,7.492,0,0,1,6.675,2.575V.682A.463.463,0,0,1,7.037.231a9.685,9.685,0,0,1,4.2,0A.464.464,0,0,1,11.6.682v1.89a7.254,7.254,0,0,1,2.341,1.351l1.639-.947a.451.451,0,0,1,.227-.061.469.469,0,0,1,.342.149A9.662,9.662,0,0,1,18.26,6.706a.465.465,0,0,1-.212.54l-1.641.947a7.366,7.366,0,0,1,0,2.7l1.641.947a.476.476,0,0,1,.216.543,9.594,9.594,0,0,1-2.106,3.642.458.458,0,0,1-.339.151.465.465,0,0,1-.231-.062l-1.641-.947a7.492,7.492,0,0,1-2.341,1.351v1.893a.463.463,0,0,1-.362.451A9.657,9.657,0,0,1,9.143,19.1Zm0-12.632a3.08,3.08,0,1,0,3.08,3.08A3.083,3.083,0,0,0,9.139,6.464Z" transform="translate(0)"/>
    </g>
  </g>
</svg>
