<svg xmlns="http://www.w3.org/2000/svg" width="20" height="20" viewBox="0 0 20 20">
  <defs>
    <style>
      .cls-1 {
        fill: rgba(255,96,96,0);
      }

      .cls-2 {
        fill: #f9fafb;
      }
    </style>
  </defs>
  <g id="icon" transform="translate(0 0)">
    <rect id="bg" class="cls-1" width="20" height="20"/>
    <g id="noun_History_2463567" transform="translate(2 2)">
      <path id="Path_3666" data-name="Path 3666" class="cls-2" d="M69.5,59.535h1.7a.444.444,0,0,0,0-.889H69.943V56.841a.444.444,0,0,0-.889,0v2.25a.444.444,0,0,0,.444.444Z" transform="translate(-57.666 -47.259)"/>
      <path id="Path_3667" data-name="Path 3667" class="cls-2" d="M30.786,36.721h1.5a.152.152,0,0,1,.152.152v1a.152.152,0,0,1-.152.152h-1.5a.152.152,0,0,1-.152-.152v-1a.152.152,0,0,1,.152-.152Z" transform="translate(-26.076 -31.082)"/>
      <path id="Path_3668" data-name="Path 3668" class="cls-2" d="M46.522,36.721h1.5a.152.152,0,0,1,.152.152v1a.152.152,0,0,1-.152.152h-1.5a.152.152,0,0,1-.152-.152v-1a.152.152,0,0,1,.152-.152Z" transform="translate(-39.015 -31.082)"/>
      <path id="Path_3669" data-name="Path 3669" class="cls-2" d="M62.258,36.721h1.5a.152.152,0,0,1,.152.152v1a.152.152,0,0,1-.152.152h-1.5a.152.152,0,0,1-.152-.152v-1A.152.152,0,0,1,62.258,36.721Z" transform="translate(-51.954 -31.082)"/>
      <path id="Path_3670" data-name="Path 3670" class="cls-2" d="M15.049,50.428h1.5a.152.152,0,0,1,.152.152v1a.152.152,0,0,1-.152.152h-1.5a.152.152,0,0,1-.152-.152v-1a.152.152,0,0,1,.152-.152Z" transform="translate(-13.137 -42.352)"/>
      <path id="Path_3671" data-name="Path 3671" class="cls-2" d="M30.786,50.428h1.5a.152.152,0,0,1,.152.152v1a.152.152,0,0,1-.152.152h-1.5a.152.152,0,0,1-.152-.152v-1a.152.152,0,0,1,.152-.152Z" transform="translate(-26.076 -42.352)"/>
      <rect id="Rectangle_1480" data-name="Rectangle 1480" class="cls-2" width="1.8" height="1.303" rx="0.652" transform="translate(1.76 10.513)"/>
      <path id="Path_3672" data-name="Path 3672" class="cls-2" d="M30.786,64.135h1.5a.152.152,0,0,1,.152.152v1a.152.152,0,0,1-.152.152h-1.5a.152.152,0,0,1-.152-.152v-1a.152.152,0,0,1,.152-.152Z" transform="translate(-26.076 -53.622)"/>
      <path id="Path_3673" data-name="Path 3673" class="cls-2" d="M46.37,51.579a.152.152,0,0,0,.152.152h.109a4.915,4.915,0,0,1,1.1-1.3H46.522a.152.152,0,0,0-.152.152Z" transform="translate(-39.015 -42.352)"/>
      <path id="Path_3674" data-name="Path 3674" class="cls-2" d="M6.459,18.712h5.87a4.839,4.839,0,0,1-.246-.762H6.459a.7.7,0,0,1-.7-.7V9.506H17.95v2.577a4.843,4.843,0,0,1,.762.246V7.794a1.459,1.459,0,0,0-1.459-1.459H16.046v-.8a.533.533,0,1,0-1.066,0v.8H8.733v-.8a.533.533,0,1,0-1.066,0v.8H6.459A1.459,1.459,0,0,0,5,7.793v9.459a1.459,1.459,0,0,0,1.459,1.459ZM14.979,7.1v.2a.533.533,0,1,0,1.066,0V7.1a.914.914,0,1,1-1.066,0Zm-7.313,0v.2a.533.533,0,0,0,1.066,0V7.1a.914.914,0,1,1-1.066,0Z" transform="translate(-5 -5)"/>
      <path id="Path_3675" data-name="Path 3675" class="cls-2" d="M52.273,56.444A4.168,4.168,0,1,0,48.1,52.276a4.168,4.168,0,0,0,4.169,4.168Zm0-7.448a3.279,3.279,0,1,1-3.28,3.279A3.279,3.279,0,0,1,52.273,49Z" transform="translate(-40.442 -40.444)"/>
    </g>
  </g>
</svg>
