<svg xmlns="http://www.w3.org/2000/svg" width="20" height="20" viewBox="0 0 20 20">
  <defs>
    <style>
      .cls-1 {
        fill: rgba(255,96,96,0);
      }

      .cls-2 {
        fill: #f9fafb;
      }
    </style>
  </defs>
  <g id="icon" transform="translate(0 0)">
    <rect id="bg" class="cls-1" width="20" height="20"/>
    <g id="noun_Wallet_2529069" transform="translate(2 1)">
      <path id="Path_3676" data-name="Path 3676" class="cls-2" d="M98.128,31.8l-.793.567a.268.268,0,0,0-.063.372.263.263,0,0,0,.369.063l.793-.567a.268.268,0,0,0,.063-.372.263.263,0,0,0-.369-.063Z" transform="translate(-84.793 -27.514)"/>
      <path id="Path_3677" data-name="Path 3677" class="cls-2" d="M4,45.331v8.534A1.329,1.329,0,0,0,5.322,55.2H18.281A1.329,1.329,0,0,0,19.6,53.864V51.445a.532.532,0,0,0,.4-.514V48.264a.532.532,0,0,0-.4-.514V45.331A1.329,1.329,0,0,0,18.281,44H5.322A1.329,1.329,0,0,0,4,45.331Zm15.074,0v2.4H15.24a1.329,1.329,0,0,0-1.322,1.333v1.067a1.329,1.329,0,0,0,1.322,1.333h3.835v2.4a.8.8,0,0,1-.793.8H5.322a.8.8,0,0,1-.793-.8V45.331a.8.8,0,0,1,.793-.8H18.281a.8.8,0,0,1,.793.8ZM15.806,49.6a.267.267,0,1,1-.267-.267.267.267,0,0,1,.267.267Z" transform="translate(-4 -38.131)"/>
      <path id="Path_3678" data-name="Path 3678" class="cls-2" d="M30.918,5.492a1.851,1.851,0,0,1,.449.283.794.794,0,0,0-.024-.9L28.036.328A.8.8,0,0,0,26.925.149l-.659.473L26.052.328A.8.8,0,0,0,24.941.149l-7.22,5.184h.912L25.248.584a.272.272,0,0,1,.377.06l.21.288-6.13,4.4h3.919l4.843-3.51,2.45,3.367a.255.255,0,0,1,0,.3Z" transform="translate(-15.892 0)"/>
    </g>
  </g>
</svg>
