<svg id="_7fae8889c4ee655977fc520419c21889" data-name="7fae8889c4ee655977fc520419c21889" xmlns="http://www.w3.org/2000/svg" width="26.932" height="29.157" viewBox="0 0 26.932 29.157">
  <defs>
    <style>
      .cls-1 {
        fill: #323366;
      }
    </style>
  </defs>
  <g id="Group_8540" data-name="Group 8540">
    <path id="Path_101" data-name="Path 101" class="cls-1" d="M184.722-500.931c-.023.046-1.7,3.241-3.737,7.108l-3.7,7.039h2.484c1.987,0,2.476.023,2.453.1-.023.092-6.81,13.291-7.376,14.345l-.267.5.267-.267c.145-.145,4.112-4.464,8.8-9.592l8.538-9.324-3.218-.038-3.218-.038,3.157-4.739c1.743-2.606,3.225-4.83,3.294-4.953l.137-.207h-3.783C186.266-501,184.753-500.969,184.722-500.931Z" transform="translate(-170.796 501)"/>
    <path id="Path_102" data-name="Path 102" class="cls-1" d="M58.587-459.527a13.531,13.531,0,0,0-10.509,9.118,13.443,13.443,0,0,0,1.093,10.822,14.264,14.264,0,0,0,2.683,3.34l.535.458.481-.971.489-.963-.7-.741a11.359,11.359,0,0,1-2.912-5.595,13.589,13.589,0,0,1-.038-4.2,11.36,11.36,0,0,1,2.981-5.793,11.189,11.189,0,0,1,5.289-3.156l.619-.161.566-1.078c.313-.6.581-1.108.589-1.139C59.794-459.68,59.275-459.649,58.587-459.527Z" transform="translate(-47.412 460.872)"/>
    <path id="Path_103" data-name="Path 103" class="cls-1" d="M305.311-393.01a6.583,6.583,0,0,0-.558.9,13.431,13.431,0,0,1,3.516,3.34,11.826,11.826,0,0,1,1.758,4.2,13.473,13.473,0,0,1,.046,4.112,11.46,11.46,0,0,1-9.263,9.232,13.331,13.331,0,0,1-3.822,0,15.594,15.594,0,0,1-2.53-.741c-.237-.092-.245-.092-.7.4-.252.267-.589.634-.749.818l-.283.321.642.306a13.513,13.513,0,0,0,8.277.91,13.741,13.741,0,0,0,8.66-6.03,17.858,17.858,0,0,0,1.36-2.866,13.481,13.481,0,0,0-1.567-11.747,14.258,14.258,0,0,0-2.193-2.553,16.682,16.682,0,0,0-1.88-1.414C305.915-393.881,305.808-393.759,305.311-393.01Z" transform="translate(-285.431 397.023)"/>
  </g>
</svg>
