<svg xmlns="http://www.w3.org/2000/svg" width="38" height="38" viewBox="0 0 38 38">
  <defs>
    <style>
      .cls-1 {
        fill: rgba(255,96,96,0);
      }

      .cls-2 {
        fill: #323366;
      }
    </style>
  </defs>
  <g id="icon" transform="translate(0)">
    <rect id="bg" class="cls-1" width="38" height="38"/>
    <g id="headset-solid" transform="translate(10.636 9.429)">
      <path id="Shape" class="cls-2" d="M15.424,18.727H8.777a1.756,1.756,0,0,1,0-3.511H9.948A1.758,1.758,0,0,1,11.7,16.97h3.72a1.548,1.548,0,0,0,1.546-1.546c0-.248,0-5.976,0-6.062a7.605,7.605,0,1,0-15.211,0v.585a.585.585,0,0,1-.584.585H.585A.586.586,0,0,1,0,9.948V9.363A9.86,9.86,0,0,1,2.785,2.8a9.126,9.126,0,0,1,13.155,0,9.859,9.859,0,0,1,2.786,6.563v6.062A3.306,3.306,0,0,1,15.424,18.727Zm-1.965-5.853h-.585A1.171,1.171,0,0,1,11.7,11.7v-4.1a1.172,1.172,0,0,1,1.17-1.171h.585a2.343,2.343,0,0,1,2.34,2.34v1.756A2.343,2.343,0,0,1,13.459,12.874Zm-7.608,0H5.266a2.343,2.343,0,0,1-2.34-2.34V8.777a2.343,2.343,0,0,1,2.34-2.34h.585A1.172,1.172,0,0,1,7.022,7.608v4.1A1.172,1.172,0,0,1,5.852,12.874Z"/>
    </g>
  </g>
</svg>
