<svg id="icon" xmlns="http://www.w3.org/2000/svg" width="38" height="38" viewBox="0 0 38 38">
  <defs>
    <style>
      .cls-1 {
        fill: rgba(255,96,96,0);
      }

      .cls-2 {
        fill: #323366;
      }
    </style>
  </defs>
  <rect id="bg" class="cls-1" width="38" height="38"/>
  <g id="noun_History_2463567" transform="translate(3.8 3.8)">
    <path id="Path_3666" data-name="Path 3666" class="cls-2" d="M69.9,62.36H73.13a.844.844,0,1,0,0-1.689H70.743v-3.43a.844.844,0,1,0-1.689,0v4.274a.844.844,0,0,0,.845.844Z" transform="translate(-47.417 -39.035)"/>
    <path id="Path_3667" data-name="Path 3667" class="cls-2" d="M30.923,36.721h2.842a.289.289,0,0,1,.289.289v1.9a.289.289,0,0,1-.289.289H30.923a.289.289,0,0,1-.289-.289v-1.9a.289.289,0,0,1,.289-.289Z" transform="translate(-21.975 -26.006)"/>
    <path id="Path_3668" data-name="Path 3668" class="cls-2" d="M46.659,36.721H49.5a.289.289,0,0,1,.289.289v1.9a.289.289,0,0,1-.289.289H46.659a.289.289,0,0,1-.289-.289v-1.9a.289.289,0,0,1,.289-.289Z" transform="translate(-32.396 -26.006)"/>
    <path id="Path_3669" data-name="Path 3669" class="cls-2" d="M62.4,36.721h2.842a.289.289,0,0,1,.289.289v1.9a.289.289,0,0,1-.289.289H62.4a.289.289,0,0,1-.289-.289v-1.9A.289.289,0,0,1,62.4,36.721Z" transform="translate(-42.817 -26.006)"/>
    <path id="Path_3670" data-name="Path 3670" class="cls-2" d="M15.186,50.428h2.842a.289.289,0,0,1,.289.289v1.9a.289.289,0,0,1-.289.289H15.186a.289.289,0,0,1-.289-.289v-1.9a.289.289,0,0,1,.289-.289Z" transform="translate(-11.554 -35.083)"/>
    <path id="Path_3671" data-name="Path 3671" class="cls-2" d="M30.923,50.428h2.842a.289.289,0,0,1,.289.289v1.9a.289.289,0,0,1-.289.289H30.923a.289.289,0,0,1-.289-.289v-1.9a.289.289,0,0,1,.289-.289Z" transform="translate(-21.975 -35.083)"/>
    <rect id="Rectangle_1480" data-name="Rectangle 1480" class="cls-2" width="3.42" height="2.476" rx="0.856" transform="translate(3.343 19.975)"/>
    <path id="Path_3672" data-name="Path 3672" class="cls-2" d="M30.923,64.135h2.842a.289.289,0,0,1,.289.289v1.9a.289.289,0,0,1-.289.289H30.923a.289.289,0,0,1-.289-.289v-1.9a.289.289,0,0,1,.289-.289Z" transform="translate(-21.975 -44.16)"/>
    <path id="Path_3673" data-name="Path 3673" class="cls-2" d="M46.37,52.615a.289.289,0,0,0,.289.289h.207a9.339,9.339,0,0,1,2.1-2.476H46.659a.289.289,0,0,0-.289.289Z" transform="translate(-32.396 -35.083)"/>
    <path id="Path_3674" data-name="Path 3674" class="cls-2" d="M7.772,31.053H18.926a9.194,9.194,0,0,1-.468-1.448H7.772A1.327,1.327,0,0,1,6.447,28.28V13.561H29.605v4.9a9.2,9.2,0,0,1,1.447.468V10.308A2.773,2.773,0,0,0,28.28,7.535H25.987V6.013a1.013,1.013,0,1,0-2.026,0V7.535H12.092V6.013a1.013,1.013,0,0,0-2.026,0V7.535H7.772A2.772,2.772,0,0,0,5,10.308V28.28a2.773,2.773,0,0,0,2.773,2.773ZM23.961,8.984v.378a1.013,1.013,0,0,0,2.026,0V8.984a1.737,1.737,0,1,1-2.026,0Zm-13.895,0v.378a1.013,1.013,0,0,0,2.026,0V8.984a1.737,1.737,0,1,1-2.026,0Z" transform="translate(-5 -5)"/>
    <path id="Path_3675" data-name="Path 3675" class="cls-2" d="M56.025,63.947a7.92,7.92,0,1,0-7.92-7.92A7.92,7.92,0,0,0,56.025,63.947Zm0-14.151a6.231,6.231,0,1,1-6.231,6.231A6.231,6.231,0,0,1,56.025,49.8Z" transform="translate(-33.545 -33.546)"/>
  </g>
</svg>
