<svg xmlns="http://www.w3.org/2000/svg" width="111.802" height="31.987" viewBox="0 0 111.802 31.987">
  <defs>
    <style>
      .cls-1 {
        fill: #323366;
        font-family: OpenSans-Bold, Open Sans;
        font-weight: 700;
      }

      .cls-1, .cls-2 {
        font-size: 14px;
      }

      .cls-2, .cls-5 {
        fill: #f16722;
      }

      .cls-2 {
        font-family: OpenSans, Open Sans;
      }

      .cls-3, .cls-6 {
        fill: #333;
      }

      .cls-4 {
        fill: #767676;
      }

      .cls-6 {
        stroke: #333;
      }
    </style>
  </defs>
  <g id="Group_10678" data-name="Group 10678" transform="translate(-165.495 -28.582)">
    <g id="Group_11" data-name="Group 11" transform="translate(-1471.911 -851.857)">
      <text id="Infinite" class="cls-1" transform="translate(1662.209 908.426)"><tspan x="0" y="0">Infinite</tspan></text>
      <text id="Light" class="cls-2" transform="translate(1716.209 908.426)"><tspan x="0" y="0">Light</tspan></text>
      <g id="Group_13" data-name="Group 13" transform="translate(1632.735 880.439)">
        <g id="lightbulb" transform="translate(4.672 0)">
          <g id="Group_12" data-name="Group 12" transform="translate(0)">
            <g id="Group_11-2" data-name="Group 11" transform="translate(0.522)">
              <path id="Path_2" data-name="Path 2" class="cls-3" d="M110.926,93.2a5.606,5.606,0,0,0-3.7,9.805,4.209,4.209,0,0,1,.785,2.8.333.333,0,0,0,.1.262.371.371,0,0,0,.242.1h5.134a.333.333,0,0,0,.242-.1.383.383,0,0,0,.1-.262,4.335,4.335,0,0,1,.785-2.8l.06-.06a5.589,5.589,0,0,0-3.745-9.745Zm3.221,9.282c-.02.02-.06.06-.06.081a4.7,4.7,0,0,0-.946,2.9h-4.45a4.679,4.679,0,0,0-1.007-2.98,4.9,4.9,0,1,1,6.463,0Z" transform="translate(-101.838 -88.509)"/>
              <path id="Path_3" data-name="Path 3" class="cls-4" d="M209.671,121.6a.342.342,0,0,0,0,.685,3.665,3.665,0,0,1,3.664,3.664.342.342,0,0,0,.685,0A4.331,4.331,0,0,0,209.671,121.6Z" transform="translate(-200.603 -115.479)"/>
              <path id="Path_4" data-name="Path 4" class="cls-3" d="M160.244,358.4h-4.47a.846.846,0,1,0,0,1.691h4.45a.868.868,0,0,0,.866-.846A.851.851,0,0,0,160.244,358.4Zm0,.987h-4.47a.159.159,0,0,1-.161-.161.148.148,0,0,1,.161-.161h4.45a.159.159,0,0,1,.161.161A.144.144,0,0,1,160.244,359.387Z" transform="translate(-148.941 -340.36)"/>
              <path id="Path_5" data-name="Path 5" class="cls-3" d="M172.116,398.8h-3.141a.846.846,0,1,0,0,1.691h3.141a.851.851,0,0,0,.846-.846A.838.838,0,0,0,172.116,398.8Zm0,.987h-3.141a.159.159,0,0,1-.161-.161.148.148,0,0,1,.161-.161h3.141a.161.161,0,0,1,0,.322Z" transform="translate(-161.477 -378.727)"/>
              <path id="Path_6" data-name="Path 6" class="cls-3" d="M209.671,3.02a.339.339,0,0,0,.342-.342V.342a.342.342,0,0,0-.685,0V2.678A.353.353,0,0,0,209.671,3.02Z" transform="translate(-200.603)"/>
              <path id="Path_7" data-name="Path 7" class="cls-3" d="M294.955,33.178a.325.325,0,0,0-.463.081L293.2,35.191a.332.332,0,0,0,.081.483.325.325,0,0,0,.181.06.321.321,0,0,0,.282-.161l1.289-1.933A.312.312,0,0,0,294.955,33.178Z" transform="translate(-280.189 -31.446)"/>
              <path id="Path_8" data-name="Path 8" class="cls-3" d="M104.644,33.562a.325.325,0,0,0,.181-.06.353.353,0,0,0,.1-.483l-1.248-1.953a.349.349,0,1,0-.584.383l1.248,1.953A.334.334,0,0,0,104.644,33.562Z" transform="translate(-99.663 -29.354)"/>
              <path id="Path_9" data-name="Path 9" class="cls-3" d="M38.511,104.437l-2.034-1.107a.354.354,0,0,0-.463.141.321.321,0,0,0,.141.463l2.034,1.107a.474.474,0,0,0,.161.04.332.332,0,0,0,.3-.181A.354.354,0,0,0,38.511,104.437Z" transform="translate(-35.966 -98.095)"/>
              <path id="Path_10" data-name="Path 10" class="cls-3" d="M344.917,103.471a.355.355,0,0,0-.463-.141l-2.054,1.107a.355.355,0,0,0-.141.463.332.332,0,0,0,.3.181.379.379,0,0,0,.161-.04l2.054-1.107A.354.354,0,0,0,344.917,103.471Z" transform="translate(-326.808 -98.095)"/>
              <path id="light-2" data-name="light" class="cls-5" d="M109.889,3.147h-2.308L108.731,0l-3.515,4.82h2.308l-1.151,3.147Z" transform="translate(-98.48 7.466)"/>
            </g>
            <path id="Path_11" data-name="Path 11" class="cls-6" d="M1768.813,1367.5h3.146a.855.855,0,0,1-.324.409c-.257.182-.079.128-.5.305a1.073,1.073,0,0,1-.584.135,1.884,1.884,0,0,1-.444,0,1.833,1.833,0,0,1-.535-.169,2.224,2.224,0,0,1-.438-.271,1.691,1.691,0,0,1-.325-.409" transform="translate(-1760.649 -1344.904)"/>
            <path id="Path_3647" data-name="Path 3647" class="cls-3" d="M21.125,15.823a4.425,4.425,0,0,0-3.138,1.3l-1.22,1.22a.542.542,0,0,0,.767.767l1.22-1.22a3.353,3.353,0,1,1,0,4.742l-5.508-5.509a4.438,4.438,0,1,0,0,6.276l1.22-1.22a.542.542,0,1,0-.767-.767l-1.22,1.22a3.353,3.353,0,1,1,0-4.742L17.987,23.4a4.438,4.438,0,1,0,3.138-7.575Z" transform="translate(-5.672 7.291)"/>
          </g>
        </g>
      </g>
    </g>
  </g>
</svg>
