<svg xmlns="http://www.w3.org/2000/svg" width="21.98" height="28.915" viewBox="0 0 21.98 28.915">
  <defs>
    <style>
      .cls-1, .cls-4 {
        fill: #333;
      }

      .cls-2 {
        fill: #fff;
      }

      .cls-3 {
        fill: #f16722;
      }

      .cls-4 {
        stroke: #333;
      }
    </style>
  </defs>
  <g id="lightbulb" transform="translate(0)">
    <g id="Group_12" data-name="Group 12" transform="translate(0)">
      <g id="Group_11" data-name="Group 11">
        <path id="Path_2" data-name="Path 2" class="cls-1" d="M112.109,93.2a6.791,6.791,0,0,0-4.488,11.878c1.073,1.073.976,3.366.951,3.39a.4.4,0,0,0,.122.317.45.45,0,0,0,.293.122h6.219a.4.4,0,0,0,.293-.122.464.464,0,0,0,.122-.317c0-.024-.122-2.317.951-3.39l.073-.073a6.77,6.77,0,0,0-4.537-11.8Zm3.9,11.244c-.024.024-.073.073-.073.1a5.7,5.7,0,0,0-1.146,3.512H109.4a5.668,5.668,0,0,0-1.22-3.61,5.939,5.939,0,1,1,7.829,0Z" transform="translate(-101.1 -87.517)"/>
        <path id="Path_3" data-name="Path 3" class="cls-2" d="M209.744,121.6a.415.415,0,1,0,0,.829,4.439,4.439,0,0,1,4.439,4.439.415.415,0,1,0,.829,0A5.246,5.246,0,0,0,209.744,121.6Z" transform="translate(-198.758 -114.185)"/>
        <path id="Path_4" data-name="Path 4" class="cls-1" d="M161.368,358.4h-5.415a1.024,1.024,0,1,0,0,2.049h5.39a1.052,1.052,0,0,0,1.049-1.024A1.031,1.031,0,0,0,161.368,358.4Zm0,1.2h-5.415a.192.192,0,0,1-.2-.2.18.18,0,0,1,.2-.2h5.39a.192.192,0,0,1,.2.2A.174.174,0,0,1,161.368,359.6Z" transform="translate(-147.675 -336.547)"/>
        <path id="Path_5" data-name="Path 5" class="cls-1" d="M172.958,398.8h-3.8a1.024,1.024,0,1,0,0,2.049h3.8a1.031,1.031,0,0,0,1.024-1.024A1.015,1.015,0,0,0,172.958,398.8Zm0,1.2h-3.8a.192.192,0,0,1-.2-.2.18.18,0,0,1,.2-.2h3.8a.2.2,0,0,1,0,.39Z" transform="translate(-160.07 -374.483)"/>
        <path id="Path_6" data-name="Path 6" class="cls-1" d="M209.744,3.659a.411.411,0,0,0,.415-.415V.415a.415.415,0,0,0-.829,0V3.244A.427.427,0,0,0,209.744,3.659Z" transform="translate(-198.758)"/>
        <path id="Path_7" data-name="Path 7" class="cls-1" d="M295.341,33.192a.393.393,0,0,0-.561.1l-1.561,2.341a.4.4,0,0,0,.1.585.393.393,0,0,0,.22.073.389.389,0,0,0,.341-.2l1.561-2.341A.378.378,0,0,0,295.341,33.192Z" transform="translate(-277.453 -31.094)"/>
        <path id="Path_8" data-name="Path 8" class="cls-1" d="M104.983,34.122a.393.393,0,0,0,.22-.073.427.427,0,0,0,.122-.585L103.812,31.1a.423.423,0,0,0-.707.463l1.512,2.366A.4.4,0,0,0,104.983,34.122Z" transform="translate(-98.949 -29.025)"/>
        <path id="Path_9" data-name="Path 9" class="cls-1" d="M39.049,104.679l-2.463-1.341a.429.429,0,0,0-.561.171.389.389,0,0,0,.171.561l2.463,1.341a.574.574,0,0,0,.2.049.4.4,0,0,0,.366-.22A.429.429,0,0,0,39.049,104.679Z" transform="translate(-35.966 -96.996)"/>
        <path id="Path_10" data-name="Path 10" class="cls-1" d="M345.486,103.508a.429.429,0,0,0-.561-.171l-2.488,1.341a.429.429,0,0,0-.171.561.4.4,0,0,0,.366.22.459.459,0,0,0,.2-.049l2.488-1.341A.429.429,0,0,0,345.486,103.508Z" transform="translate(-323.549 -96.996)"/>
        <path id="light" class="cls-3" d="M110.876,3.812h-2.8L109.475,0l-4.259,5.838h2.8l-1.394,3.812Z" transform="translate(-97.056 9.044)"/>
      </g>
      <path id="Path_11" data-name="Path 11" class="cls-4" d="M1768.813,1367.5h3.811a1.035,1.035,0,0,1-.393.5c-.312.22-.1.155-.6.37a1.3,1.3,0,0,1-.708.164,2.28,2.28,0,0,1-.538,0,2.225,2.225,0,0,1-.648-.205,2.681,2.681,0,0,1-.531-.329,2.047,2.047,0,0,1-.394-.5" transform="translate(-1759.556 -1340.129)"/>
    </g>
  </g>
</svg>
