<svg xmlns="http://www.w3.org/2000/svg" width="24.871" height="40" viewBox="0 0 24.871 40">
  <defs>
    <style>
      .cls-1, .cls-4 {
        fill: #333;
      }

      .cls-2 {
        fill: #767676;
      }

      .cls-3 {
        fill: #f16722;
      }

      .cls-4 {
        stroke: #333;
      }
    </style>
  </defs>
  <g id="lightbulb" transform="translate(0)">
    <g id="Group_12" data-name="Group 12">
      <g id="Group_11" data-name="Group 11" transform="translate(0.63)">
        <path id="Path_2" data-name="Path 2" class="cls-1" d="M112.083,93.2a6.9,6.9,0,0,0-6.754,7,7.173,7.173,0,0,0,2.284,5.262c1.069,1.108.972,3.475.947,3.5a.425.425,0,0,0,.121.327.44.44,0,0,0,.292.126h6.2a.4.4,0,0,0,.292-.126.488.488,0,0,0,.121-.327c0-.025-.121-2.392.947-3.5l.073-.076a7.179,7.179,0,0,0,2.235-5.187A6.9,6.9,0,0,0,112.083,93.2Zm3.887,11.607c-.024.025-.073.076-.073.1a6.027,6.027,0,0,0-1.142,3.626h-5.369a5.994,5.994,0,0,0-1.215-3.726,6.233,6.233,0,0,1-2.041-4.633,5.932,5.932,0,1,1,11.856,0A6.211,6.211,0,0,1,115.97,104.807Z" transform="translate(-101.116 -87.334)"/>
        <path id="Path_3" data-name="Path 3" class="cls-2" d="M209.742,121.6a.428.428,0,0,0,0,.856,4.5,4.5,0,0,1,4.422,4.582.413.413,0,1,0,.826,0A5.324,5.324,0,0,0,209.742,121.6Z" transform="translate(-198.8 -113.946)"/>
        <path id="Path_4" data-name="Path 4" class="cls-1" d="M161.343,358.4h-5.393a1.058,1.058,0,0,0,0,2.115h5.369a1.067,1.067,0,0,0,1.045-1.057A1.046,1.046,0,0,0,161.343,358.4Zm0,1.234h-5.393a.2.2,0,0,1-.194-.2.182.182,0,0,1,.194-.2h5.369a.2.2,0,0,1,.194.2C161.513,359.558,161.44,359.634,161.343,359.634Z" transform="translate(-147.704 -335.841)"/>
        <path id="Path_5" data-name="Path 5" class="cls-1" d="M172.939,398.8h-3.79a1.058,1.058,0,0,0,0,2.115h3.79a1.046,1.046,0,0,0,1.02-1.057A1.03,1.03,0,0,0,172.939,398.8Zm0,1.234h-3.79a.2.2,0,0,1-.194-.2.182.182,0,0,1,.194-.2h3.79a.2.2,0,0,1,0,.4Z" transform="translate(-160.102 -373.698)"/>
        <path id="Path_6" data-name="Path 6" class="cls-1" d="M209.742,3.777a.417.417,0,0,0,.413-.428V.428a.413.413,0,1,0-.826,0V3.349A.434.434,0,0,0,209.742,3.777Z" transform="translate(-198.8)"/>
        <path id="Path_7" data-name="Path 7" class="cls-1" d="M295.332,33.194a.383.383,0,0,0-.559.1l-1.555,2.417a.424.424,0,0,0,.1.6.375.375,0,0,0,.559-.126l1.555-2.417A.4.4,0,0,0,295.332,33.194Z" transform="translate(-277.514 -31.029)"/>
        <path id="Path_8" data-name="Path 8" class="cls-1" d="M104.976,34.226a.383.383,0,0,0,.219-.076.451.451,0,0,0,.121-.6L103.809,31.1a.417.417,0,0,0-.583-.126.451.451,0,0,0-.121.6l1.506,2.442A.4.4,0,0,0,104.976,34.226Z" transform="translate(-98.965 -28.964)"/>
        <path id="Path_9" data-name="Path 9" class="cls-1" d="M39.037,104.724l-2.454-1.385a.42.42,0,0,0-.559.176.409.409,0,0,0,.17.579l2.454,1.385a.556.556,0,0,0,.194.05.4.4,0,0,0,.364-.227A.452.452,0,0,0,39.037,104.724Z" transform="translate(-35.966 -96.793)"/>
        <path id="Path_10" data-name="Path 10" class="cls-1" d="M345.473,103.515a.42.42,0,0,0-.559-.176l-2.478,1.385a.452.452,0,0,0-.17.579.4.4,0,0,0,.364.227.445.445,0,0,0,.194-.05l2.478-1.385A.452.452,0,0,0,345.473,103.515Z" transform="translate(-323.623 -96.793)"/>
        <path id="light" class="cls-3" d="M110.854,3.935H108.07L109.458,0l-4.242,6.027H108l-1.388,3.935Z" transform="translate(-97.088 9.336)"/>
      </g>
      <path id="Path_11" data-name="Path 11" class="cls-4" d="M1768.813,1367.5h3.8a1.068,1.068,0,0,1-.391.512c-.311.228-.1.16-.6.382a1.255,1.255,0,0,1-.7.169,2.192,2.192,0,0,1-.536,0,2.159,2.159,0,0,1-.645-.212,2.666,2.666,0,0,1-.529-.339,2.1,2.1,0,0,1-.392-.512" transform="translate(-1758.962 -1339.245)"/>
      <path id="Path_3647" data-name="Path 3647" class="cls-1" d="M25,15.823a5.533,5.533,0,0,0-3.924,1.623l-1.525,1.525a.678.678,0,1,0,.959.959l1.525-1.525a4.193,4.193,0,1,1,0,5.93l-6.887-6.889a5.55,5.55,0,1,0,0,7.849l1.525-1.525a.678.678,0,1,0-.959-.959l-1.525,1.525a4.193,4.193,0,1,1,0-5.93l6.887,6.889A5.55,5.55,0,1,0,25,15.823Z" transform="translate(-5.672 13.081)"/>
    </g>
  </g>
</svg>
