<svg xmlns="http://www.w3.org/2000/svg" width="79.985" height="46.044" viewBox="0 0 79.985 46.044">
  <g id="noun_referrals_859830" transform="translate(0)">
    <g id="Group_10741" data-name="Group 10741">
      <path id="Path_3706" data-name="Path 3706" d="M1.665,69.283c.031,0,.062,0,.092,0a1.554,1.554,0,0,0,1.46-1.642c-.076-1.291-.111-2.467-.11-3.537-.007-4.7.679-7.342,1.352-8.72V84.5a2.4,2.4,0,0,0,4.8,0V75.115a10.474,10.474,0,0,1,5.7-18.039V55.391a8.4,8.4,0,0,1,.345.822c.087.24.171.507.251.8.281-.023.564-.037.85-.037a10.475,10.475,0,0,1,2.406.282A12.23,12.23,0,0,0,17.2,53.05a5.478,5.478,0,0,0-2.073-1.933,3.71,3.71,0,0,0-1.575-.414c-.03,0-.06,0-.09,0h-7.5c-.032,0-.063,0-.094,0a3.7,3.7,0,0,0-1.572.413,6.553,6.553,0,0,0-2.958,3.658A25.7,25.7,0,0,0,0,64.1c0,1.137.036,2.373.116,3.719A1.553,1.553,0,0,0,1.665,69.283Z" transform="translate(0 -40.857)"/>
      <path id="Path_3707" data-name="Path 3707" d="M52.328,188.983a2.4,2.4,0,0,0,4.8,0V182.32a10.427,10.427,0,0,1-4.8-1.969Z" transform="translate(-42.17 -145.339)"/>
      <circle id="Ellipse_90" data-name="Ellipse 90" cx="4.368" cy="4.368" r="4.368" transform="translate(5.341)"/>
      <path id="Path_3708" data-name="Path 3708" d="M110.456,55.381V60.99a10.449,10.449,0,0,1,0,12.933V84.5a2.4,2.4,0,0,0,4.8,0V66.977h.074a10.5,10.5,0,0,1,5.626-8.812V55.391a8.455,8.455,0,0,1,.345.822,12.714,12.714,0,0,1,.444,1.577,10.4,10.4,0,0,1,3.014-.765,11.976,11.976,0,0,0-1.566-3.975,5.482,5.482,0,0,0-2.073-1.933,3.7,3.7,0,0,0-1.571-.413c-.031,0-.062,0-.094,0h-7.5c-.033,0-.065,0-.1,0a3.705,3.705,0,0,0-1.568.413,6.551,6.551,0,0,0-2.958,3.658,16.46,16.46,0,0,0-.854,3.109,10.515,10.515,0,0,1,2.856,1.889A14.013,14.013,0,0,1,110.456,55.381Z" transform="translate(-85.808 -40.857)"/>
      <path id="Path_3709" data-name="Path 3709" d="M156.328,158.161V171.1a2.4,2.4,0,0,0,4.8,0v-7.752A10.548,10.548,0,0,1,156.328,158.161Z" transform="translate(-125.98 -127.457)"/>
      <circle id="Ellipse_91" data-name="Ellipse 91" cx="4.368" cy="4.368" r="4.368" transform="translate(25.531)"/>
      <path id="Path_3710" data-name="Path 3710" d="M215.179,55.381v2.783a10.494,10.494,0,0,1,5.626,8.812h.074V84.5a2.4,2.4,0,0,0,4.8,0V73.923a10.45,10.45,0,0,1,0-12.932v-5.6a8.431,8.431,0,0,1,.345.822,16.391,16.391,0,0,1,.774,3.561,10.512,10.512,0,0,1,2.858-1.89,12.911,12.911,0,0,0-1.74-4.834,5.48,5.48,0,0,0-2.073-1.933,3.7,3.7,0,0,0-1.57-.414c-.031,0-.063,0-.094,0h-7.5c-.03,0-.059,0-.089,0a3.709,3.709,0,0,0-1.577.414,6.555,6.555,0,0,0-2.958,3.658,15.264,15.264,0,0,0-.68,2.251,10.4,10.4,0,0,1,3.012.764A10.827,10.827,0,0,1,215.179,55.381Z" transform="translate(-170.341 -40.857)"/>
      <path id="Path_3711" data-name="Path 3711" d="M230.967,163.356v7.753a2.4,2.4,0,0,0,4.8,0V158.17A10.549,10.549,0,0,1,230.967,163.356Z" transform="translate(-186.129 -127.464)"/>
      <circle id="Ellipse_92" data-name="Ellipse 92" cx="4.368" cy="4.368" r="4.368" transform="translate(45.72)"/>
      <path id="Path_3712" data-name="Path 3712" d="M318.374,57.01a9.518,9.518,0,0,1,.6-1.629v1.694a10.474,10.474,0,0,1,5.7,18.04V84.5a2.4,2.4,0,0,0,4.8,0V55.39a8.416,8.416,0,0,1,.345.823,23.988,23.988,0,0,1,1.005,7.889c0,1.071-.034,2.247-.109,3.538a1.553,1.553,0,0,0,1.46,1.641l.092,0a1.553,1.553,0,0,0,1.549-1.463c.078-1.346.115-2.582.115-3.719-.008-5.859-.944-9.1-2.22-11.052a5.479,5.479,0,0,0-2.073-1.933,3.7,3.7,0,0,0-1.571-.414c-.031,0-.062,0-.094,0h-7.5c-.03,0-.059,0-.089,0a3.707,3.707,0,0,0-1.577.414,6.551,6.551,0,0,0-2.958,3.658,15.625,15.625,0,0,0-.73,2.48,10.467,10.467,0,0,1,2.406-.282C317.811,56.973,318.094,56.987,318.374,57.01Z" transform="translate(-253.945 -40.856)"/>
      <path id="Path_3713" data-name="Path 3713" d="M334.965,188.985a2.4,2.4,0,0,0,4.8,0v-8.632a10.428,10.428,0,0,1-4.8,1.968v6.664Z" transform="translate(-269.938 -145.341)"/>
      <circle id="Ellipse_93" data-name="Ellipse 93" cx="4.368" cy="4.368" r="4.368" transform="translate(65.91)"/>
      <path id="Path_3714" data-name="Path 3714" d="M34.512,96.727a9.707,9.707,0,1,0,9.707-9.707A9.707,9.707,0,0,0,34.512,96.727Zm17.084,0a7.377,7.377,0,1,1-7.377-7.377A7.385,7.385,0,0,1,51.6,96.727Z" transform="translate(-27.812 -70.127)"/>
      <path id="Path_3715" data-name="Path 3715" d="M65.183,115.02v3.106H60.718v2.33h4.465v3.106l4.678-4.271Z" transform="translate(-48.931 -92.691)"/>
      <path id="Path_3716" data-name="Path 3716" d="M156.012,96.727a9.707,9.707,0,1,0,9.707-9.707A9.707,9.707,0,0,0,156.012,96.727Zm9.706-7.377a7.377,7.377,0,1,1-7.377,7.377A7.385,7.385,0,0,1,165.718,89.35Z" transform="translate(-125.725 -70.127)"/>
      <path id="Path_3717" data-name="Path 3717" d="M182.218,118.126v2.33h4.465v3.106l4.678-4.271-4.678-4.271v3.106Z" transform="translate(-146.844 -92.691)"/>
      <path id="Path_3718" data-name="Path 3718" d="M277.512,96.727a9.707,9.707,0,1,0,9.707-9.707A9.707,9.707,0,0,0,277.512,96.727Zm9.706-7.377a7.377,7.377,0,1,1-7.377,7.377A7.385,7.385,0,0,1,287.218,89.35Z" transform="translate(-223.638 -70.127)"/>
      <path id="Path_3719" data-name="Path 3719" d="M308.183,120.456v3.106l4.678-4.271-4.678-4.271v3.106h-4.465v2.33Z" transform="translate(-244.757 -92.691)"/>
    </g>
  </g>
</svg>
