<svg id="icon" xmlns="http://www.w3.org/2000/svg" width="38" height="38" viewBox="0 0 38 38">
  <defs>
    <style>
      .cls-1 {
        fill: rgba(255,96,96,0);
      }

      .cls-2 {
        fill: #323366;
      }
    </style>
  </defs>
  <rect id="bg" class="cls-1" width="38" height="38"/>
  <g id="users-solid" transform="translate(8.296 11.26)">
    <path id="Shape" class="cls-2" d="M16.245,15.686H6.162a1.682,1.682,0,0,1-1.681-1.681V13A4.038,4.038,0,0,1,8.514,8.964H8.8a5.543,5.543,0,0,0,2.4.559,5.5,5.5,0,0,0,2.4-.559h.29A4.038,4.038,0,0,1,17.926,13v1.008A1.682,1.682,0,0,1,16.245,15.686Zm5.042-3.361h-2.31a5.148,5.148,0,0,0-2.63-3.83,2.226,2.226,0,0,1,1.578-.652h2.241a2.244,2.244,0,0,1,2.241,2.241V11.2A1.123,1.123,0,0,1,21.287,12.325Zm-17.86,0H1.12A1.122,1.122,0,0,1,0,11.2v-1.12A2.244,2.244,0,0,1,2.241,7.842h2.24a2.228,2.228,0,0,1,1.58.652,5.165,5.165,0,0,0-2.634,3.829ZM11.2,7.842a3.921,3.921,0,1,1,3.922-3.92A3.925,3.925,0,0,1,11.2,7.842Zm7.844-1.12a2.241,2.241,0,1,1,2.24-2.241A2.244,2.244,0,0,1,19.047,6.722Zm-15.686,0A2.241,2.241,0,1,1,5.6,4.481,2.244,2.244,0,0,1,3.361,6.722Z"/>
  </g>
</svg>
