<svg id="SBSC_Logo_oran_blu" xmlns="http://www.w3.org/2000/svg" width="79.415" height="43.706" viewBox="0 0 79.415 43.706">
  <defs>
    <style>
      .cls-1 {
        fill: #323366;
      }

      .cls-2 {
        fill: #f16722;
      }

      .cls-3 {
        fill: #ee4e14;
      }
    </style>
  </defs>
  <g id="Group_21" data-name="Group 21" transform="translate(37.324 0.068)">
    <path id="Path_43" data-name="Path 43" class="cls-1" d="M362.731,360.963a1.871,1.871,0,0,0,1.72.972,1.34,1.34,0,0,0,1.477-1.376c0-1.943-3.562-.88-3.562-3.3a1.977,1.977,0,0,1,2.176-1.963,2.523,2.523,0,0,1,1.832.83l-.385.465a2.087,2.087,0,0,0-1.447-.668c-.809,0-1.488.415-1.488,1.3,0,1.73,3.562.82,3.562,3.278a2.033,2.033,0,0,1-2.175,2.064,2.394,2.394,0,0,1-2.2-1.214Z" transform="translate(-362.164 -355.075)"/>
    <path id="Path_44" data-name="Path 44" class="cls-1" d="M381.055,363.211a2.6,2.6,0,1,1-2.6-2.661A2.657,2.657,0,0,1,381.055,363.211Zm-4.614,0a2.015,2.015,0,1,0,2.013-2.075A2.064,2.064,0,0,0,376.441,363.211Z" transform="translate(-370.844 -358.425)"/>
    <path id="Path_45" data-name="Path 45" class="cls-1" d="M392.135,356.929V356.4c0-1.487.911-1.72,1.953-1.72l.152.587c-1.376.01-1.517.253-1.517,1.255v.4h1.447v.587h-1.447v4.493l-.587.121v-4.614h-.688l.142-.587Z" transform="translate(-380.79 -354.683)"/>
    <path id="Path_46" data-name="Path 46" class="cls-1" d="M399.391,356.878l.587-.324v1.569h1.376v.587h-1.376v3.137c0,.617.263.85.911.85a3.735,3.735,0,0,0,.476-.02v.547a2.878,2.878,0,0,1-.526.061,1.316,1.316,0,0,1-1.447-1.447v-3.127h-.678l.142-.587h.536Z" transform="translate(-385.424 -355.876)"/>
    <path id="Path_47" data-name="Path 47" class="cls-1" d="M409.861,361.855l-1.8,4.017h-.02l-2.257-5.2.577-.121,1.69,3.875,1.832-3.875,1.892,3.875,1.72-3.875.567.121-2.277,5.2h-.02Z" transform="translate(-389.934 -358.425)"/>
    <path id="Path_48" data-name="Path 48" class="cls-1" d="M429.249,360.854a3.888,3.888,0,0,1,1.477-.3c.789,0,1.589.415,1.589,1.285v3.916l-.587.121v-.637h-.02a1.356,1.356,0,0,1-1.245.637,1.848,1.848,0,1,1-.071-3.693,2.131,2.131,0,0,1,1.335.587v-.85c0-.425-.516-.779-1.194-.779a5.016,5.016,0,0,0-1.477.4Zm1.255,4.432a1.26,1.26,0,0,0-.02-2.52,1.265,1.265,0,1,0,.02,2.52Z" transform="translate(-404.442 -358.425)"/>
    <path id="Path_49" data-name="Path 49" class="cls-1" d="M442.558,361.683h.02a1.738,1.738,0,0,1,1.882-1.133l-.253.6a1.7,1.7,0,0,0-.233-.01c-.637,0-1.416.789-1.416,2.064v2.55l-.587.121v-5.2l.587-.121Z" transform="translate(-413.015 -358.425)"/>
    <path id="Path_50" data-name="Path 50" class="cls-1" d="M449.691,364.1a2.071,2.071,0,0,0,1.8,1.184,3.059,3.059,0,0,0,1.922-.84v.708a2.9,2.9,0,0,1-1.882.718,2.586,2.586,0,0,1-2.631-2.722,2.532,2.532,0,0,1,2.651-2.6,2.332,2.332,0,0,1,2,1.184Zm2.944-2.519a1.469,1.469,0,0,0-1.082-.445,2,2,0,0,0-2.065,2.024,1.919,1.919,0,0,0,.041.415Z" transform="translate(-417.436 -358.425)"/>
    <path id="Path_51" data-name="Path 51" class="cls-1" d="M364.955,379.5c1.184,0,1.963.557,1.963,1.821a1.577,1.577,0,0,1-.911,1.528,1.726,1.726,0,0,1,1.113,1.71c0,1.2-.708,1.882-2.186,1.882h-1.741V379.5Zm-1.133,3.106h.951c1.012,0,1.518-.486,1.518-1.275a1.16,1.16,0,0,0-1.255-1.2h-1.214Zm0,3.208h1.062c1.245,0,1.548-.587,1.548-1.255a1.243,1.243,0,0,0-1.346-1.326h-1.265Z" transform="translate(-362.769 -370.51)"/>
    <path id="Path_52" data-name="Path 52" class="cls-1" d="M377.363,384.3v3.369c0,.911.364,1.427,1.235,1.427.951,0,1.558-.344,1.558-2.388v-2.287l.587-.121v5.2l-.587.081v-.84h-.02a1.731,1.731,0,0,1-1.588.88c-1.285,0-1.771-.728-1.771-1.882v-3.319Z" transform="translate(-371.432 -373.576)"/>
    <path id="Path_53" data-name="Path 53" class="cls-1" d="M390.16,388.482a1.693,1.693,0,0,0,1.275.556c.6,0,1.093-.314,1.093-.941,0-1.275-2.681-.536-2.681-2.317a1.548,1.548,0,0,1,1.68-1.477,2.476,2.476,0,0,1,1.518.6l-.334.465a2.039,2.039,0,0,0-1.214-.476c-.577,0-1.063.283-1.063.86,0,1.275,2.681.435,2.681,2.317,0,1.062-.819,1.558-1.811,1.558a2.093,2.093,0,0,1-1.589-.769Z" transform="translate(-379.685 -373.576)"/>
    <path id="Path_54" data-name="Path 54" class="cls-1" d="M402.718,378.962l-.465.526-.465-.526.465-.527Zm-.708,6.921v-5.2l.587-.121v5.2Z" transform="translate(-387.385 -369.833)"/>
    <path id="Path_55" data-name="Path 55" class="cls-1" d="M407.822,389.585v-5.161l.587-.121v.84h.02a1.788,1.788,0,0,1,1.468-.84c.982,0,1.892.384,1.892,1.791v3.41l-.587.081v-3.622c0-.739-.475-1.133-1.285-1.133a1.47,1.47,0,0,0-1.508,1.386V389.5Z" transform="translate(-391.234 -373.576)"/>
    <path id="Path_56" data-name="Path 56" class="cls-1" d="M421.718,387.854a2.07,2.07,0,0,0,1.8,1.184,3.064,3.064,0,0,0,1.923-.84v.708a2.9,2.9,0,0,1-1.883.718,2.586,2.586,0,0,1-2.631-2.722,2.532,2.532,0,0,1,2.651-2.6,2.333,2.333,0,0,1,2,1.184Zm2.944-2.52a1.47,1.47,0,0,0-1.083-.445,2,2,0,0,0-2.064,2.024,1.919,1.919,0,0,0,.041.415Z" transform="translate(-399.594 -373.576)"/>
    <path id="Path_57" data-name="Path 57" class="cls-1" d="M435.179,388.482a1.692,1.692,0,0,0,1.275.556c.6,0,1.093-.314,1.093-.941,0-1.275-2.682-.536-2.682-2.317a1.548,1.548,0,0,1,1.679-1.477,2.476,2.476,0,0,1,1.518.6l-.334.465a2.041,2.041,0,0,0-1.214-.476c-.577,0-1.062.283-1.062.86,0,1.275,2.681.435,2.681,2.317,0,1.062-.82,1.558-1.811,1.558a2.094,2.094,0,0,1-1.589-.769Z" transform="translate(-408.399 -373.576)"/>
    <path id="Path_58" data-name="Path 58" class="cls-1" d="M446.048,388.482a1.693,1.693,0,0,0,1.275.556c.6,0,1.093-.314,1.093-.941,0-1.275-2.681-.536-2.681-2.317a1.548,1.548,0,0,1,1.679-1.477,2.475,2.475,0,0,1,1.518.6l-.334.465a2.04,2.04,0,0,0-1.214-.476c-.577,0-1.062.283-1.062.86,0,1.275,2.681.435,2.681,2.317,0,1.062-.82,1.558-1.811,1.558a2.094,2.094,0,0,1-1.589-.769Z" transform="translate(-415.332 -373.576)"/>
    <path id="Path_59" data-name="Path 59" class="cls-1" d="M362.731,408.469a1.871,1.871,0,0,0,1.72.972,1.34,1.34,0,0,0,1.477-1.376c0-1.943-3.562-.88-3.562-3.3a1.977,1.977,0,0,1,2.176-1.963,2.525,2.525,0,0,1,1.832.83l-.385.465a2.087,2.087,0,0,0-1.447-.668c-.809,0-1.488.415-1.488,1.3,0,1.73,3.562.82,3.562,3.278a2.033,2.033,0,0,1-2.175,2.064,2.394,2.394,0,0,1-2.2-1.214Z" transform="translate(-362.164 -385.375)"/>
    <path id="Path_60" data-name="Path 60" class="cls-1" d="M381.055,410.717a2.6,2.6,0,1,1-2.6-2.661A2.658,2.658,0,0,1,381.055,410.717Zm-4.614,0a2.015,2.015,0,1,0,2.013-2.074A2.064,2.064,0,0,0,376.441,410.717Z" transform="translate(-370.844 -388.726)"/>
    <path id="Path_61" data-name="Path 61" class="cls-1" d="M393.683,409.515l-.587.121V402.31l.587-.121Z" transform="translate(-381.841 -384.984)"/>
    <path id="Path_62" data-name="Path 62" class="cls-1" d="M399.1,408.056v3.369c0,.911.364,1.427,1.235,1.427.951,0,1.558-.344,1.558-2.388v-2.287l.587-.121v5.2l-.587.081v-.84h-.02a1.73,1.73,0,0,1-1.588.88c-1.285,0-1.771-.729-1.771-1.882v-3.319Z" transform="translate(-385.299 -388.726)"/>
    <path id="Path_63" data-name="Path 63" class="cls-1" d="M411.8,404.384l.587-.324v1.569h1.376v.587h-1.376v3.137c0,.618.263.85.911.85a3.663,3.663,0,0,0,.476-.021v.547a2.884,2.884,0,0,1-.526.061,1.316,1.316,0,0,1-1.447-1.447v-3.127h-.678l.142-.587h.536Z" transform="translate(-393.338 -386.177)"/>
    <path id="Path_64" data-name="Path 64" class="cls-1" d="M421.357,402.715l-.465.526-.465-.526.465-.526Zm-.708,6.921v-5.2l.587-.121v5.2Z" transform="translate(-399.273 -384.984)"/>
    <path id="Path_65" data-name="Path 65" class="cls-1" d="M430.74,410.717a2.6,2.6,0,1,1-2.6-2.661A2.657,2.657,0,0,1,430.74,410.717Zm-4.614,0a2.015,2.015,0,1,0,2.014-2.074A2.065,2.065,0,0,0,426.126,410.717Z" transform="translate(-402.535 -388.726)"/>
    <path id="Path_66" data-name="Path 66" class="cls-1" d="M442,413.338v-5.161l.587-.121v.84h.02a1.788,1.788,0,0,1,1.468-.84c.981,0,1.892.384,1.892,1.791v3.41l-.587.081v-3.622c0-.739-.475-1.134-1.285-1.134a1.471,1.471,0,0,0-1.508,1.386v3.289Z" transform="translate(-413.033 -388.726)"/>
    <path id="Path_67" data-name="Path 67" class="cls-1" d="M455.382,412.235a1.693,1.693,0,0,0,1.275.557c.6,0,1.093-.314,1.093-.941,0-1.274-2.682-.536-2.682-2.317a1.548,1.548,0,0,1,1.679-1.477,2.476,2.476,0,0,1,1.518.6l-.334.465a2.04,2.04,0,0,0-1.214-.476c-.577,0-1.062.283-1.062.86,0,1.275,2.681.435,2.681,2.317,0,1.063-.82,1.558-1.811,1.558a2.094,2.094,0,0,1-1.589-.769Z" transform="translate(-421.285 -388.726)"/>
    <path id="Path_68" data-name="Path 68" class="cls-1" d="M366.868,433.5a3.267,3.267,0,0,1-1.305.324,3.634,3.634,0,0,1,0-7.265,3.267,3.267,0,0,1,1.305.324l.091.769a2.528,2.528,0,0,0-1.447-.465,3.013,3.013,0,0,0,0,6.011,2.4,2.4,0,0,0,1.447-.465Z" transform="translate(-362.021 -400.526)"/>
    <path id="Path_69" data-name="Path 69" class="cls-1" d="M382.62,434.47a2.6,2.6,0,1,1-2.6-2.661A2.657,2.657,0,0,1,382.62,434.47Zm-4.614,0a2.015,2.015,0,1,0,2.014-2.074A2.065,2.065,0,0,0,378.006,434.47Z" transform="translate(-371.842 -403.876)"/>
    <path id="Path_70" data-name="Path 70" class="cls-1" d="M393.878,437.091V431.93l.587-.121v.84h.02a1.788,1.788,0,0,1,1.467-.84c.982,0,1.892.384,1.892,1.791v3.41l-.587.081v-3.622c0-.739-.476-1.134-1.285-1.134a1.471,1.471,0,0,0-1.508,1.386v3.289Z" transform="translate(-382.34 -403.876)"/>
    <path id="Path_71" data-name="Path 71" class="cls-1" d="M407.262,435.988a1.692,1.692,0,0,0,1.275.557c.6,0,1.093-.314,1.093-.941,0-1.275-2.682-.536-2.682-2.317a1.548,1.548,0,0,1,1.679-1.477,2.476,2.476,0,0,1,1.518.6l-.334.465a2.041,2.041,0,0,0-1.214-.475c-.577,0-1.062.283-1.062.86,0,1.275,2.681.435,2.681,2.317,0,1.063-.82,1.558-1.811,1.558a2.094,2.094,0,0,1-1.589-.769Z" transform="translate(-390.592 -403.876)"/>
    <path id="Path_72" data-name="Path 72" class="cls-1" d="M419.308,431.809v3.369c0,.911.364,1.427,1.235,1.427.951,0,1.558-.344,1.558-2.388V431.93l.587-.121v5.2l-.587.081v-.84h-.02a1.73,1.73,0,0,1-1.589.88c-1.285,0-1.771-.729-1.771-1.882V431.93Z" transform="translate(-398.186 -403.876)"/>
    <path id="Path_73" data-name="Path 73" class="cls-1" d="M434.063,433.267l-.587.121v-7.326l.587-.121Z" transform="translate(-407.597 -400.133)"/>
    <path id="Path_74" data-name="Path 74" class="cls-1" d="M438.205,428.138l.587-.323v1.568h1.376v.587h-1.376v3.137c0,.618.263.85.911.85a3.731,3.731,0,0,0,.476-.02v.547a2.886,2.886,0,0,1-.527.061,1.316,1.316,0,0,1-1.447-1.447v-3.127h-.678l.142-.587h.536Z" transform="translate(-410.181 -401.328)"/>
    <path id="Path_75" data-name="Path 75" class="cls-1" d="M447.764,426.468l-.465.526-.465-.526.465-.527Zm-.708,6.921v-5.2l.587-.121v5.2Z" transform="translate(-416.116 -400.133)"/>
    <path id="Path_76" data-name="Path 76" class="cls-1" d="M452.868,437.091V431.93l.587-.121v.84h.02a1.789,1.789,0,0,1,1.467-.84c.981,0,1.892.384,1.892,1.791v3.41l-.587.081v-3.622c0-.739-.475-1.134-1.285-1.134a1.471,1.471,0,0,0-1.508,1.386v3.289Z" transform="translate(-419.966 -403.876)"/>
    <path id="Path_77" data-name="Path 77" class="cls-1" d="M465.833,437a2.411,2.411,0,0,0,1.852.982c.82,0,1.69-.516,1.69-1.275a1.58,1.58,0,0,0-1.639-1.467,3.553,3.553,0,0,0-1.326.293l.213-.668a1.711,1.711,0,0,1-.982-1.437,1.946,1.946,0,0,1,2.115-1.922c.2,0,.415.02.617.02a8.345,8.345,0,0,0,1.67-.192l-.172.6a1.321,1.321,0,0,1-.445.071,1.274,1.274,0,0,1-.273-.03l-.02.02a1.794,1.794,0,0,1,.769,1.4,1.709,1.709,0,0,1-1.1,1.558,1.806,1.806,0,0,1,1.164,1.679,2.121,2.121,0,0,1-2.328,1.943,2.875,2.875,0,0,1-2.246-1.235Zm.395-3.6a1.4,1.4,0,0,0,1.528,1.3,1.335,1.335,0,1,0-1.528-1.3Z" transform="translate(-427.951 -403.572)"/>
  </g>
  <g id="Group_22" data-name="Group 22" transform="translate(6.207)">
    <path id="Path_78" data-name="Path 78" class="cls-2" d="M278.312,384.565a10.193,10.193,0,0,0,18.975-5.269c0-5.826-4.017-9.391-9.438-10.294-2.16-.351-3.716-1.605-3.716-3.964a4,4,0,0,1,4.218-4.067,3.912,3.912,0,0,1,3.176,1.934l-.8.286a3.184,3.184,0,0,0-2.625-1.417,3.269,3.269,0,0,0-3.163,3.263,3.234,3.234,0,0,0,3.012,3.212c5.823,1.055,10.14,4.718,10.14,11.046a11.021,11.021,0,0,1-20.483,5.722,15.907,15.907,0,0,1-1.5-3.544l1.089.511A13.149,13.149,0,0,0,278.312,384.565Zm5.538-3.255a3.754,3.754,0,0,0,3.245,1.848,3.811,3.811,0,0,0,3.765-3.862,3.974,3.974,0,0,0-3.614-3.917c-5.471-.9-9.489-4.516-9.489-10.39a10.433,10.433,0,0,1,10.392-10.494,10.683,10.683,0,0,1,9.591,6.525c.151.351.675,1.995.811,2.34l-1.015-.607s-.2-.648-.45-1.28a9.873,9.873,0,0,0-8.936-6.177,9.762,9.762,0,0,0-9.639,9.742c0,5.321,3.717,8.685,8.736,9.536,2.51.4,4.417,1.959,4.417,4.722a4.541,4.541,0,0,1-8.473,2.4Zm-4.235,2.3a8.743,8.743,0,0,0,7.48,4.419,8.647,8.647,0,0,0,8.585-8.736c0-4.972-3.414-7.882-7.983-8.639-2.912-.5-5.119-2.508-5.119-5.619a5.557,5.557,0,0,1,10.546-2.567l-.817.194a4.776,4.776,0,0,0-8.977,2.373c0,2.758,1.908,4.366,4.419,4.77,4.968.85,8.733,4.164,8.733,9.488a9.5,9.5,0,0,1-9.388,9.537,9.712,9.712,0,0,1-8.132-4.718,9.007,9.007,0,0,1-.9-1.94l-.116-.5,1.026.345S278.637,382,279.615,383.612Zm16.016-21.286a7.979,7.979,0,0,0-15.513,2.959c0,4.22,3.314,7.129,7.229,7.734,3.313.5,5.923,2.66,5.923,6.276a6.2,6.2,0,0,1-6.224,6.275,6.036,6.036,0,0,1-5.423-3.316l.653-.5a5.543,5.543,0,0,0,4.519,3.009,5.406,5.406,0,0,0,5.672-5.469c0-3.116-2.259-5.074-5.17-5.522-4.569-.7-7.881-3.917-7.881-8.785a8.726,8.726,0,0,1,16.918-3.116s.2.607.281.859l-.984-.4m-14.659,20.381a6.951,6.951,0,0,0,13.1-3.412c0-4.019-2.911-6.53-6.626-7.08-3.715-.6-6.476-3.263-6.476-7.178a7.127,7.127,0,0,1,13.792-2.674c.04.1.078.209.112.314l-.858-.274a6.433,6.433,0,1,0-6.471,9.059c3.968.653,7.329,3.163,7.329,7.579,0,4.468-3.212,8.182-7.781,8.182a7.856,7.856,0,0,1-6.826-4.066c-.209-.388-.5-.878-.5-.878l1.035.021A3.971,3.971,0,0,0,280.972,382.707Z" transform="translate(-276.104 -354.494)"/>
  </g>
  <g id="Group_23" data-name="Group 23" transform="translate(0 7.452)">
    <path id="Path_79" data-name="Path 79" class="cls-1" d="M286.423,396.4a13.056,13.056,0,0,0,2.735-1.228,10.245,10.245,0,0,0-5.39-18.984c-5.826,0-9.391,4.016-10.293,9.438-.353,2.159-1.607,3.714-3.966,3.714a3.994,3.994,0,0,1-4.066-4.217,3.937,3.937,0,0,1,2.035-3.235l.315.778a3.188,3.188,0,0,0-1.546,2.708,3.268,3.268,0,0,0,3.262,3.163,3.235,3.235,0,0,0,3.214-3.012c1.054-5.823,4.717-10.14,11.045-10.14a11.02,11.02,0,0,1,5.724,20.481,11.718,11.718,0,0,1-3.492,1.5Zm.245-7.453a3.748,3.748,0,0,0,.963-2.569,3.811,3.811,0,0,0-3.863-3.763,3.971,3.971,0,0,0-3.917,3.613c-.9,5.47-4.517,9.487-10.391,9.487a10.433,10.433,0,0,1-10.494-10.39,10.6,10.6,0,0,1,6.525-9.591,14.009,14.009,0,0,1,1.775-.664l-.211.859s-.191.074-1.111.46a9.87,9.87,0,0,0-6.176,8.936,9.762,9.762,0,0,0,9.741,9.638c5.322,0,8.687-3.716,9.537-8.735.4-2.51,1.958-4.417,4.722-4.417a4.573,4.573,0,0,1,4.668,4.819,4.4,4.4,0,0,1-1.562,3.133S286.761,389.29,286.667,388.946Zm-19.486-7.922a5,5,0,0,0-2.541,4.049,4.828,4.828,0,0,0,4.868,5.07c2.759,0,4.366-1.908,4.77-4.419.85-4.969,4.166-8.733,9.489-8.733a9.5,9.5,0,0,1,9.537,9.386,9.372,9.372,0,0,1-4.743,8.091,10.95,10.95,0,0,1-1.783.84l.212-.947a8.792,8.792,0,0,0,5.513-7.984,8.646,8.646,0,0,0-8.736-8.583c-4.971,0-7.882,3.414-8.639,7.982-.5,2.912-2.509,5.12-5.62,5.12a5.553,5.553,0,0,1-2.48-10.581m20.017,10.366a5.35,5.35,0,0,0-3.278-9.674c-3.115,0-5.073,2.258-5.522,5.17-.7,4.568-3.917,7.882-8.785,7.882a8.727,8.727,0,0,1-3.114-16.92c.408-.152.545-.188.545-.188s-.062.7-.054.838a8,8,0,0,0,2.922,15.568c4.219,0,7.13-3.315,7.733-7.23.5-3.312,2.662-5.924,6.276-5.924a6.2,6.2,0,0,1,3.371,11.453C287.138,391.343,287.045,390.682,287.045,390.682Zm.115,1.737a6.28,6.28,0,0,0,3.736-5.991,7.07,7.07,0,0,0-7.129-7.026c-4.018,0-6.528,2.91-7.081,6.627-.6,3.713-3.262,6.475-7.178,6.475a7.118,7.118,0,0,1-2.661-13.781l.062.755a6.321,6.321,0,0,0-3.875,5.848,6.466,6.466,0,0,0,12.9.6c.653-3.966,3.165-7.329,7.579-7.329,4.468,0,8.276,3.215,8.184,7.781a7.378,7.378,0,0,1-4.591,7.046Z" transform="translate(-258.966 -375.07)"/>
  </g>
  <g id="Group_24" data-name="Group 24" transform="translate(37.457 38.227)">
    <path id="Path_80" data-name="Path 80" class="cls-3" d="M363.171,460.349h.474a1.8,1.8,0,0,1,1.93,2.217,2.8,2.8,0,0,1-2.761,2.216h-.424Zm-.265,4.014a2.174,2.174,0,0,0,2.207-1.835,1.429,1.429,0,0,0-1.469-1.761h-.1Z" transform="translate(-362.389 -460.238)"/>
    <path id="Path_81" data-name="Path 81" class="cls-3" d="M372.144,467.611a.7.7,0,0,0,.661.474,1.542,1.542,0,0,0,.742-.228l.007.376a1.937,1.937,0,0,1-.815.222,1.013,1.013,0,0,1-1.014-1.231,1.549,1.549,0,0,1,1.448-1.232.917.917,0,0,1,.925.659Zm1.42-1.071a.526.526,0,0,0-.462-.2,1.085,1.085,0,0,0-.993.813.457.457,0,0,0-.01.129Z" transform="translate(-368.333 -463.837)"/>
    <path id="Path_82" data-name="Path 82" class="cls-3" d="M379.63,460.146l-.788,4.469-.407.074.788-4.47Z" transform="translate(-372.624 -460.109)"/>
    <path id="Path_83" data-name="Path 83" class="cls-3" d="M382.377,463.219l-.376.32-.264-.32.377-.32Zm-.678.911.407-.074-.408,2.315-.407.074Z" transform="translate(-374.445 -461.864)"/>
    <path id="Path_84" data-name="Path 84" class="cls-3" d="M384.882,466.1l.383,1.6,1-1.6.411.074-1.61,2.462-.643-2.462Z" transform="translate(-376.445 -463.903)"/>
    <path id="Path_85" data-name="Path 85" class="cls-3" d="M391.066,467.611a.7.7,0,0,0,.661.474,1.542,1.542,0,0,0,.742-.228l.007.376a1.934,1.934,0,0,1-.814.222,1.013,1.013,0,0,1-1.014-1.231,1.549,1.549,0,0,1,1.448-1.232.917.917,0,0,1,.924.659Zm1.42-1.071a.527.527,0,0,0-.463-.2,1.085,1.085,0,0,0-.993.813.457.457,0,0,0-.01.129Z" transform="translate(-380.402 -463.837)"/>
    <path id="Path_86" data-name="Path 86" class="cls-3" d="M397.7,466.169l.383-.074-.064.363a1.152,1.152,0,0,1,.766-.363l-.127.369c-.411.062-.708.382-.822,1.034l-.16.911-.383.074Z" transform="translate(-384.649 -463.903)"/>
    <path id="Path_87" data-name="Path 87" class="cls-3" d="M402.217,463.219l-.377.32-.264-.32.376-.32Zm-.678.911.407-.074-.408,2.315-.407.074Z" transform="translate(-387.1 -461.864)"/>
    <path id="Path_88" data-name="Path 88" class="cls-3" d="M404.463,466.1l.383-.074-.049.277a1.041,1.041,0,0,1,.739-.314.672.672,0,0,1,.727.869L406,468.344l-.407.074.241-1.367c.072-.413-.068-.665-.4-.665a.783.783,0,0,0-.749.69l-.224,1.268-.407.074Z" transform="translate(-388.965 -463.837)"/>
    <path id="Path_89" data-name="Path 89" class="cls-3" d="M411.106,468.51a.69.69,0,0,0,.572.351.7.7,0,0,0,.656-.541.454.454,0,0,0-.461-.53.913.913,0,0,0-.575.259l-.2-.283a.88.88,0,0,1,.427-.222l0-.012a.594.594,0,0,1-.419-.726,1.127,1.127,0,0,1,1.131-.9.765.765,0,0,1,.258.037l.581-.087-.113.259-.183.025,0,.012a.658.658,0,0,1,.178.634.952.952,0,0,1-.742.751l0,.012a.615.615,0,0,1,.512.763,1.174,1.174,0,0,1-1.153.917.98.98,0,0,1-.761-.4Zm.845-1.225a.667.667,0,0,0,.645-.517.429.429,0,0,0-.462-.517.668.668,0,0,0-.645.517A.43.43,0,0,0,411.951,467.284Z" transform="translate(-393.277 -463.751)"/>
    <path id="Path_90" data-name="Path 90" class="cls-3" d="M422.382,460.349h.474a1.8,1.8,0,0,1,1.93,2.217,2.8,2.8,0,0,1-2.761,2.216H421.6Zm-.265,4.014a2.175,2.175,0,0,0,2.208-1.835,1.43,1.43,0,0,0-1.469-1.761h-.1Z" transform="translate(-400.156 -460.238)"/>
    <path id="Path_91" data-name="Path 91" class="cls-3" d="M431.814,463.219l-.377.32-.263-.32.376-.32Zm-.678.911.407-.074-.408,2.315-.407.074Z" transform="translate(-405.978 -461.864)"/>
    <path id="Path_92" data-name="Path 92" class="cls-3" d="M434.209,461.077a1.12,1.12,0,0,1,1.131-1.034l-.034.37a.729.729,0,0,0-.7.652l-.213,1.206h.555l-.061.345h-.555l-.34,1.933-.407.074Z" transform="translate(-407.799 -460.043)"/>
    <path id="Path_93" data-name="Path 93" class="cls-3" d="M437.678,461.077a1.12,1.12,0,0,1,1.13-1.034l-.034.37a.727.727,0,0,0-.7.652l-.213,1.206h.554l-.061.345H437.8l-.341,1.933-.407.074Z" transform="translate(-410.012 -460.043)"/>
    <path id="Path_94" data-name="Path 94" class="cls-3" d="M441.148,467.611a.7.7,0,0,0,.661.474,1.542,1.542,0,0,0,.742-.228l.007.376a1.934,1.934,0,0,1-.814.222,1.013,1.013,0,0,1-1.014-1.231,1.549,1.549,0,0,1,1.448-1.232.916.916,0,0,1,.924.659Zm1.42-1.071a.526.526,0,0,0-.462-.2,1.085,1.085,0,0,0-.993.813.459.459,0,0,0-.01.129Z" transform="translate(-412.346 -463.837)"/>
    <path id="Path_95" data-name="Path 95" class="cls-3" d="M447.779,466.169l.383-.074-.064.363a1.152,1.152,0,0,1,.766-.363l-.126.369c-.411.062-.708.382-.823,1.034l-.16.911-.383.074Z" transform="translate(-416.593 -463.903)"/>
    <path id="Path_96" data-name="Path 96" class="cls-3" d="M451.84,467.611a.7.7,0,0,0,.662.474,1.542,1.542,0,0,0,.742-.228l.008.376a1.938,1.938,0,0,1-.815.222,1.013,1.013,0,0,1-1.014-1.231,1.549,1.549,0,0,1,1.448-1.232.918.918,0,0,1,.925.659Zm1.42-1.071a.527.527,0,0,0-.463-.2,1.084,1.084,0,0,0-.993.813.455.455,0,0,0-.011.129Z" transform="translate(-419.165 -463.837)"/>
    <path id="Path_97" data-name="Path 97" class="cls-3" d="M458.607,466.1l.383-.074-.049.277a1.04,1.04,0,0,1,.738-.314.672.672,0,0,1,.727.869l-.262,1.483-.407.074.241-1.367c.072-.413-.067-.665-.4-.665a.784.784,0,0,0-.749.69l-.223,1.268-.407.074Z" transform="translate(-423.499 -463.837)"/>
    <path id="Path_98" data-name="Path 98" class="cls-3" d="M466.331,467.046a1.17,1.17,0,0,1-.138.012c-.48,0-.6-.24-.544-.579l.245-1.391h-.16l.1-.345h.117l.133-.757.406-.067-.146.825h.524l-.061.345h-.524l-.24,1.361c-.029.166.033.265.255.265a.977.977,0,0,0,.163-.012Z" transform="translate(-428.242 -462.515)"/>
    <path id="Path_99" data-name="Path 99" class="cls-3" d="M470.037,460.146l-.788,4.469-.407.074.788-4.47Z" transform="translate(-430.288 -460.109)"/>
    <path id="Path_100" data-name="Path 100" class="cls-3" d="M471.219,466.169l.438-.074.493,1.391.947-1.391.412.074-2.2,3.214-.406-.074.953-1.391Z" transform="translate(-431.604 -463.903)"/>
  </g>
</svg>
