<svg xmlns="http://www.w3.org/2000/svg" width="336.538" height="429.968" viewBox="0 0 336.538 429.968">
  <defs>
    <style>
      .cls-1, .cls-4 {
        fill: #333;
      }

      .cls-2 {
        fill: #fff;
      }

      .cls-3 {
        fill: #f16722;
      }

      .cls-4 {
        stroke: #333;
      }
    </style>
  </defs>
  <g id="lightbulb" transform="translate(0)">
    <g id="Group_12" data-name="Group 12" transform="translate(0)">
      <g id="Group_11" data-name="Group 11">
        <path id="Path_2" data-name="Path 2" class="cls-1" d="M209.147,93.2c-57.137,0-103.818,46.681-103.818,103.818a104.694,104.694,0,0,0,35.1,78.05C156.865,291.5,155.371,326.6,155,326.977a6.184,6.184,0,0,0,1.867,4.855,6.89,6.89,0,0,0,4.481,1.867h95.228a6.184,6.184,0,0,0,4.481-1.867,7.1,7.1,0,0,0,1.867-4.855c0-.374-1.867-35.477,14.564-51.909l1.12-1.12a104.75,104.75,0,0,0,34.357-76.93C312.964,139.881,266.284,93.2,209.147,93.2ZM268.9,265.358c-.373.373-1.12,1.12-1.12,1.494-14.564,15.685-17.178,41.452-17.552,53.776H167.694c-.373-12.324-2.988-39.212-18.672-55.27a90.934,90.934,0,1,1,119.876,0Z" transform="translate(-40.57 -6.187)"/>
        <path id="Path_3" data-name="Path 3" class="cls-2" d="M215.678,121.6a6.349,6.349,0,0,0,0,12.7,67.974,67.974,0,0,1,67.967,67.967,6.349,6.349,0,1,0,12.7,0C296.715,157.824,260.491,121.6,215.678,121.6Z" transform="translate(-47.475 -8.073)"/>
        <path id="Path_4" data-name="Path 4" class="cls-1" d="M253.519,358.4H170.614a15.684,15.684,0,1,0,0,31.369h82.532c8.963-.374,16.058-7.1,16.058-15.684A15.779,15.779,0,0,0,253.519,358.4Zm0,18.3H170.614a2.946,2.946,0,0,1-2.988-2.988,2.749,2.749,0,0,1,2.988-2.988h82.532a2.946,2.946,0,0,1,2.987,2.988C256.133,375.578,255.012,376.7,253.519,376.7Z" transform="translate(-43.863 -23.794)"/>
        <path id="Path_5" data-name="Path 5" class="cls-1" d="M242.071,398.8H183.814a15.685,15.685,0,0,0,0,31.37h58.257a15.779,15.779,0,0,0,15.684-15.684A15.541,15.541,0,0,0,242.071,398.8Zm0,18.3H183.814a2.946,2.946,0,0,1-2.988-2.988,2.749,2.749,0,0,1,2.988-2.987h58.257a2.988,2.988,0,0,1,0,5.975Z" transform="translate(-44.74 -26.476)"/>
        <path id="Path_6" data-name="Path 6" class="cls-1" d="M215.678,56.017a6.294,6.294,0,0,0,6.349-6.349V6.349a6.349,6.349,0,0,0-12.7,0v43.32A6.544,6.544,0,0,0,215.678,56.017Z" transform="translate(-47.475)"/>
        <path id="Path_7" data-name="Path 7" class="cls-1" d="M326.926,34.315a6.023,6.023,0,0,0-8.589,1.494l-23.9,35.851a6.152,6.152,0,0,0,1.494,8.963,6.022,6.022,0,0,0,3.361,1.12,5.96,5.96,0,0,0,5.228-2.987L328.42,42.9A5.788,5.788,0,0,0,326.926,34.315Z" transform="translate(-53.039 -2.198)"/>
        <path id="Path_8" data-name="Path 8" class="cls-1" d="M132.812,80.1a6.023,6.023,0,0,0,3.361-1.12,6.542,6.542,0,0,0,1.867-8.963L114.887,33.795a6.474,6.474,0,0,0-10.83,7.1L127.21,77.114A6.2,6.2,0,0,0,132.812,80.1Z" transform="translate(-40.418 -2.052)"/>
        <path id="Path_9" data-name="Path 9" class="cls-1" d="M83.172,124.493,45.454,103.953c-2.988-1.494-7.1-.373-8.589,2.614a5.962,5.962,0,0,0,2.614,8.589L77.2,135.7a8.789,8.789,0,0,0,2.988.747,6.161,6.161,0,0,0,5.6-3.361C87.28,130.094,86.16,125.986,83.172,124.493Z" transform="translate(-35.966 -6.858)"/>
        <path id="Path_10" data-name="Path 10" class="cls-1" d="M392.177,106.567c-1.493-2.988-5.6-4.108-8.589-2.614L345.5,124.493c-2.988,1.494-4.108,5.6-2.614,8.589a6.161,6.161,0,0,0,5.6,3.361,7.029,7.029,0,0,0,2.987-.747l38.092-20.539C392.55,113.663,393.671,109.555,392.177,106.567Z" transform="translate(-56.298 -6.858)"/>
        <path id="light" class="cls-3" d="M191.884,58.372h-42.8L170.421,0,105.216,89.395h42.8l-21.342,58.372Z" transform="translate(19.732 138.48)"/>
      </g>
      <path id="Path_11" data-name="Path 11" class="cls-4" d="M1768.813,1367.5h58.359a15.879,15.879,0,0,1-6.018,7.592c-4.775,3.37-1.46,2.365-9.194,5.66s-10.834,2.509-10.834,2.509a35.046,35.046,0,0,1-8.243,0,34.012,34.012,0,0,1-9.918-3.14,41.292,41.292,0,0,1-8.125-5.029c-2.839-2.074-6.026-7.592-6.026-7.592" transform="translate(-1629.691 -954.076)"/>
    </g>
  </g>
</svg>
