<svg xmlns="http://www.w3.org/2000/svg" width="69.311" height="72.958" viewBox="0 0 69.311 72.958">
  <g id="noun_points_2485465" transform="translate(-3 -2)">
    <rect id="Rectangle_1525" data-name="Rectangle 1525" width="6.08" height="4.864" transform="translate(50.423 29.967)"/>
    <rect id="Rectangle_1526" data-name="Rectangle 1526" width="6.08" height="4.864" transform="translate(66.23 29.967)"/>
    <rect id="Rectangle_1527" data-name="Rectangle 1527" width="7.296" height="14.592" transform="translate(57.719 37.263)"/>
    <rect id="Rectangle_1528" data-name="Rectangle 1528" width="3.648" height="14.592" transform="translate(51.639 37.263)"/>
    <rect id="Rectangle_1529" data-name="Rectangle 1529" width="3.648" height="14.592" transform="translate(67.446 37.263)"/>
    <path id="Path_3702" data-name="Path 3702" d="M53.6,20.683,52.08,26.019l-1.525-5.336A2.32,2.32,0,1,0,46.9,23.151L50.943,26.3H49.648V31.16h4.864V26.3H53.217l4.043-3.144A2.32,2.32,0,1,0,53.6,20.683Z" transform="translate(9.287 3.671)"/>
    <path id="Path_3703" data-name="Path 3703" d="M3,34.944A10.944,10.944,0,1,0,13.944,24,10.943,10.943,0,0,0,3,34.944Zm9.065-2.685,1.879-4,1.879,4,4.2.642-3.04,3.115.717,4.4-3.757-2.077-3.757,2.077.717-4.4L7.864,32.9Z" transform="translate(0 4.751)"/>
    <path id="Path_3704" data-name="Path 3704" d="M11.8,8.08V18.52L9.012,15.732,7.293,17.451l4.864,4.864a1.215,1.215,0,0,0,1.719,0l4.864-4.864-1.719-1.719L14.233,18.52V8.08A3.652,3.652,0,0,1,17.88,4.432h37.7A3.652,3.652,0,0,1,59.223,8.08v12.16h2.432V8.08A6.087,6.087,0,0,0,55.575,2H17.88A6.087,6.087,0,0,0,11.8,8.08Z" transform="translate(0.927 0)"/>
    <path id="Path_3705" data-name="Path 3705" d="M60.855,59.592V49.151l2.788,2.788,1.719-1.719L60.5,45.356a1.215,1.215,0,0,0-1.719,0L53.915,50.22l1.719,1.719,2.788-2.788v10.44a3.652,3.652,0,0,1-3.648,3.648H17.08a3.652,3.652,0,0,1-3.648-3.648V47.432H11v12.16a6.087,6.087,0,0,0,6.08,6.08h37.7A6.087,6.087,0,0,0,60.855,59.592Z" transform="translate(1.728 9.286)"/>
  </g>
</svg>
