<svg id="icon" xmlns="http://www.w3.org/2000/svg" width="20" height="20" viewBox="0 0 20 20">
  <defs>
    <style>
      .cls-1 {
        fill: rgba(255,96,96,0);
      }

      .cls-2 {
        fill: #f9fafb;
      }
    </style>
  </defs>
  <rect id="bg" class="cls-1" width="20" height="20"/>
  <g id="cog-solid" transform="translate(3 2)">
    <path id="Shape" class="cls-2" d="M7.483,15.63h0a7.9,7.9,0,0,1-1.72-.189.38.38,0,0,1-.3-.369v-1.55a5.941,5.941,0,0,1-1.915-1.106l-1.343.775a.369.369,0,0,1-.186.05.383.383,0,0,1-.281-.123A7.9,7.9,0,0,1,.018,10.138.38.38,0,0,1,.191,9.7l1.343-.776a6.026,6.026,0,0,1,0-2.211L.191,5.934a.375.375,0,0,1-.174-.441A7.854,7.854,0,0,1,1.742,2.512a.374.374,0,0,1,.277-.124.383.383,0,0,1,.189.051l1.339.775A6.132,6.132,0,0,1,5.463,2.108V.558a.379.379,0,0,1,.3-.369A7.927,7.927,0,0,1,9.2.189a.38.38,0,0,1,.3.369V2.105a5.937,5.937,0,0,1,1.916,1.106l1.342-.775a.369.369,0,0,1,.186-.05.384.384,0,0,1,.28.122,7.909,7.909,0,0,1,1.724,2.981.381.381,0,0,1-.174.442l-1.343.775a6.029,6.029,0,0,1,0,2.212l1.343.775a.39.39,0,0,1,.176.445,7.853,7.853,0,0,1-1.723,2.981.375.375,0,0,1-.277.124.38.38,0,0,1-.189-.051l-1.343-.775A6.132,6.132,0,0,1,9.5,13.523v1.55a.379.379,0,0,1-.3.369A7.9,7.9,0,0,1,7.483,15.63Zm0-10.339A2.521,2.521,0,1,0,10,7.812,2.524,2.524,0,0,0,7.48,5.291Z" transform="translate(0)"/>
  </g>
</svg>
