<svg id="icon" xmlns="http://www.w3.org/2000/svg" width="20" height="20" viewBox="0 0 20 20">
  <defs>
    <style>
      .cls-1 {
        fill: rgba(255,96,96,0);
      }

      .cls-2 {
        fill: #f9fafb;
      }
    </style>
  </defs>
  <rect id="bg" class="cls-1" width="20" height="20"/>
  <g id="headset-solid" transform="translate(2 2)">
    <path id="Shape" class="cls-2" d="M13.179,16H7.5a1.5,1.5,0,0,1,0-3h1A1.5,1.5,0,0,1,10,14.5h3.178A1.322,1.322,0,0,0,14.5,13.179c0-.212,0-5.106,0-5.179a6.5,6.5,0,1,0-13,0v.5A.5.5,0,0,1,1,9H.5A.5.5,0,0,1,0,8.5V8A8.424,8.424,0,0,1,2.38,2.392a7.8,7.8,0,0,1,11.24,0A8.424,8.424,0,0,1,16,8v5.179A2.825,2.825,0,0,1,13.179,16ZM11.5,11H11a1,1,0,0,1-1-1V6.5a1,1,0,0,1,1-1h.5a2,2,0,0,1,2,2V9A2,2,0,0,1,11.5,11ZM5,11H4.5a2,2,0,0,1-2-2V7.5a2,2,0,0,1,2-2H5a1,1,0,0,1,1,1V10A1,1,0,0,1,5,11Z"/>
  </g>
</svg>
