<svg id="icon" xmlns="http://www.w3.org/2000/svg" width="20" height="20" viewBox="0 0 20 20">
  <defs>
    <style>
      .cls-1 {
        fill: rgba(255,96,96,0);
      }

      .cls-2 {
        fill: #f9fafb;
      }
    </style>
  </defs>
  <rect id="bg" class="cls-1" width="20" height="20"/>
  <g id="users-solid" transform="translate(2 5)">
    <path id="Shape" class="cls-2" d="M10.875,10.5H4.125A1.126,1.126,0,0,1,3,9.375V8.7A2.7,2.7,0,0,1,5.7,6h.194A3.711,3.711,0,0,0,7.5,6.375,3.682,3.682,0,0,0,9.105,6H9.3A2.7,2.7,0,0,1,12,8.7v.675A1.126,1.126,0,0,1,10.875,10.5ZM14.25,8.25H12.7a3.446,3.446,0,0,0-1.76-2.564A1.49,1.49,0,0,1,12,5.25h1.5A1.5,1.5,0,0,1,15,6.75V7.5A.751.751,0,0,1,14.25,8.25Zm-11.956,0H.75A.751.751,0,0,1,0,7.5V6.75a1.5,1.5,0,0,1,1.5-1.5H3a1.491,1.491,0,0,1,1.058.437A3.457,3.457,0,0,0,2.294,8.249Zm5.206-3a2.625,2.625,0,1,1,2.625-2.624A2.627,2.627,0,0,1,7.5,5.25ZM12.75,4.5A1.5,1.5,0,1,1,14.25,3,1.5,1.5,0,0,1,12.75,4.5Zm-10.5,0A1.5,1.5,0,1,1,3.75,3,1.5,1.5,0,0,1,2.25,4.5Z"/>
  </g>
</svg>
